<mxfile host="app.diagrams.net" modified="2024-02-24T14:47:40.898Z" agent="Mozilla/5.0 (Windows NT 10.0; Win64; x64) AppleWebKit/537.36 (KHTML, like Gecko) Chrome/122.0.0.0 Safari/537.36" etag="qVOxWbrLibe_qffmqePy" version="23.1.6" type="device">
  <diagram id="R2lEEEUBdFMjLlhIrx00" name="Page-1">
    <mxGraphModel dx="2250" dy="1987" grid="1" gridSize="10" guides="1" tooltips="1" connect="1" arrows="1" fold="1" page="1" pageScale="1" pageWidth="850" pageHeight="1100" math="0" shadow="0" extFonts="Permanent Marker^https://fonts.googleapis.com/css?family=Permanent+Marker">
      <root>
        <mxCell id="0" />
        <mxCell id="1" parent="0" />
        <mxCell id="bIVVkQLqc1oo572h903z-1" value="&lt;span style=&quot;font-size: 18px;&quot;&gt;STUDENTE&lt;/span&gt;" style="rounded=0;whiteSpace=wrap;html=1;fillColor=none;" parent="1" vertex="1">
          <mxGeometry x="-340" y="-250" width="120" height="60" as="geometry" />
        </mxCell>
        <mxCell id="bIVVkQLqc1oo572h903z-2" value="" style="endArrow=none;html=1;rounded=0;entryX=0.738;entryY=0.342;entryDx=0;entryDy=0;entryPerimeter=0;" parent="1" target="bIVVkQLqc1oo572h903z-3" edge="1">
          <mxGeometry width="50" height="50" relative="1" as="geometry">
            <mxPoint x="-250" y="-250" as="sourcePoint" />
            <mxPoint x="-220" y="-280" as="targetPoint" />
          </mxGeometry>
        </mxCell>
        <mxCell id="bIVVkQLqc1oo572h903z-3" value="" style="ellipse;whiteSpace=wrap;html=1;fillColor=#3399FF;" parent="1" vertex="1">
          <mxGeometry x="-230" y="-280" width="10" height="10" as="geometry" />
        </mxCell>
        <mxCell id="bIVVkQLqc1oo572h903z-4" value="&lt;font style=&quot;font-size: 5px;&quot;&gt;MATRICOLA&lt;/font&gt;" style="text;html=1;align=center;verticalAlign=middle;whiteSpace=wrap;rounded=0;" parent="1" vertex="1">
          <mxGeometry x="-230" y="-300" width="60" height="30" as="geometry" />
        </mxCell>
        <mxCell id="bIVVkQLqc1oo572h903z-6" value="" style="endArrow=none;html=1;rounded=0;entryX=0;entryY=1;entryDx=0;entryDy=0;" parent="1" target="bIVVkQLqc1oo572h903z-7" edge="1">
          <mxGeometry width="50" height="50" relative="1" as="geometry">
            <mxPoint x="-280" y="-250" as="sourcePoint" />
            <mxPoint x="-250" y="-280" as="targetPoint" />
          </mxGeometry>
        </mxCell>
        <mxCell id="bIVVkQLqc1oo572h903z-7" value="" style="ellipse;whiteSpace=wrap;html=1;aspect=fixed;fillColor=none;" parent="1" vertex="1">
          <mxGeometry x="-250" y="-290" width="10" height="10" as="geometry" />
        </mxCell>
        <mxCell id="bIVVkQLqc1oo572h903z-8" value="&lt;span style=&quot;font-size: 5px;&quot;&gt;NOME&lt;/span&gt;" style="text;html=1;align=center;verticalAlign=middle;whiteSpace=wrap;rounded=0;" parent="1" vertex="1">
          <mxGeometry x="-260" y="-310" width="60" height="30" as="geometry" />
        </mxCell>
        <mxCell id="bIVVkQLqc1oo572h903z-9" value="" style="endArrow=none;html=1;rounded=0;entryX=0;entryY=1;entryDx=0;entryDy=0;" parent="1" target="bIVVkQLqc1oo572h903z-10" edge="1">
          <mxGeometry width="50" height="50" relative="1" as="geometry">
            <mxPoint x="-310" y="-250" as="sourcePoint" />
            <mxPoint x="-270" y="-290" as="targetPoint" />
          </mxGeometry>
        </mxCell>
        <mxCell id="bIVVkQLqc1oo572h903z-10" value="" style="ellipse;whiteSpace=wrap;html=1;aspect=fixed;fillColor=none;" parent="1" vertex="1">
          <mxGeometry x="-270" y="-300" width="10" height="10" as="geometry" />
        </mxCell>
        <mxCell id="bIVVkQLqc1oo572h903z-13" value="&lt;span style=&quot;font-size: 5px;&quot;&gt;COGNOME&lt;br&gt;&lt;/span&gt;" style="text;html=1;align=center;verticalAlign=middle;whiteSpace=wrap;rounded=0;" parent="1" vertex="1">
          <mxGeometry x="-280" y="-320" width="60" height="30" as="geometry" />
        </mxCell>
        <mxCell id="bIVVkQLqc1oo572h903z-14" value="" style="endArrow=none;html=1;rounded=0;exitX=0;exitY=0;exitDx=0;exitDy=0;" parent="1" source="bIVVkQLqc1oo572h903z-15" edge="1">
          <mxGeometry width="50" height="50" relative="1" as="geometry">
            <mxPoint x="-200" y="-220" as="sourcePoint" />
            <mxPoint x="-220" y="-250" as="targetPoint" />
          </mxGeometry>
        </mxCell>
        <mxCell id="bIVVkQLqc1oo572h903z-15" value="" style="ellipse;whiteSpace=wrap;html=1;aspect=fixed;fillColor=none;" parent="1" vertex="1">
          <mxGeometry x="-200" y="-220" width="10" height="10" as="geometry" />
        </mxCell>
        <mxCell id="bIVVkQLqc1oo572h903z-16" value="&lt;span style=&quot;font-size: 5px;&quot;&gt;Cf&lt;br&gt;&lt;br&gt;&lt;/span&gt;" style="text;html=1;align=center;verticalAlign=middle;whiteSpace=wrap;rounded=0;" parent="1" vertex="1">
          <mxGeometry x="-210" y="-220" width="60" height="30" as="geometry" />
        </mxCell>
        <mxCell id="bIVVkQLqc1oo572h903z-29" value="&lt;font style=&quot;font-size: 18px;&quot;&gt;DOCENTE&lt;/font&gt;" style="rounded=0;whiteSpace=wrap;html=1;fillColor=none;" parent="1" vertex="1">
          <mxGeometry x="180" y="-110" width="120" height="60" as="geometry" />
        </mxCell>
        <mxCell id="bIVVkQLqc1oo572h903z-30" value="" style="endArrow=none;html=1;rounded=0;entryX=0.74;entryY=0.981;entryDx=0;entryDy=0;entryPerimeter=0;" parent="1" target="bIVVkQLqc1oo572h903z-31" edge="1">
          <mxGeometry width="50" height="50" relative="1" as="geometry">
            <mxPoint x="210" y="-110" as="sourcePoint" />
            <mxPoint x="190" y="-150" as="targetPoint" />
          </mxGeometry>
        </mxCell>
        <mxCell id="bIVVkQLqc1oo572h903z-31" value="" style="ellipse;whiteSpace=wrap;html=1;aspect=fixed;fillColor=#3399FF;" parent="1" vertex="1">
          <mxGeometry x="180" y="-160" width="10" height="10" as="geometry" />
        </mxCell>
        <mxCell id="bIVVkQLqc1oo572h903z-32" value="&lt;span style=&quot;font-size: 5px;&quot;&gt;ID&lt;/span&gt;" style="text;html=1;align=center;verticalAlign=middle;whiteSpace=wrap;rounded=0;" parent="1" vertex="1">
          <mxGeometry x="140" y="-180" width="60" height="30" as="geometry" />
        </mxCell>
        <mxCell id="bIVVkQLqc1oo572h903z-33" value="" style="endArrow=none;html=1;rounded=0;entryX=0.735;entryY=0.947;entryDx=0;entryDy=0;entryPerimeter=0;" parent="1" target="bIVVkQLqc1oo572h903z-34" edge="1">
          <mxGeometry width="50" height="50" relative="1" as="geometry">
            <mxPoint x="240" y="-110" as="sourcePoint" />
            <mxPoint x="210" y="-170" as="targetPoint" />
          </mxGeometry>
        </mxCell>
        <mxCell id="bIVVkQLqc1oo572h903z-34" value="" style="ellipse;whiteSpace=wrap;html=1;aspect=fixed;fillColor=none;" parent="1" vertex="1">
          <mxGeometry x="200" y="-180" width="10" height="10" as="geometry" />
        </mxCell>
        <mxCell id="bIVVkQLqc1oo572h903z-37" value="&lt;span style=&quot;font-size: 5px;&quot;&gt;NOME&lt;br&gt;&lt;/span&gt;" style="text;html=1;align=center;verticalAlign=middle;whiteSpace=wrap;rounded=0;" parent="1" vertex="1">
          <mxGeometry x="160" y="-200" width="60" height="30" as="geometry" />
        </mxCell>
        <mxCell id="bIVVkQLqc1oo572h903z-38" value="" style="endArrow=none;html=1;rounded=0;entryX=0.735;entryY=0.947;entryDx=0;entryDy=0;entryPerimeter=0;" parent="1" target="bIVVkQLqc1oo572h903z-39" edge="1">
          <mxGeometry width="50" height="50" relative="1" as="geometry">
            <mxPoint x="270" y="-110" as="sourcePoint" />
            <mxPoint x="240" y="-170" as="targetPoint" />
          </mxGeometry>
        </mxCell>
        <mxCell id="bIVVkQLqc1oo572h903z-39" value="" style="ellipse;whiteSpace=wrap;html=1;aspect=fixed;fillColor=none;" parent="1" vertex="1">
          <mxGeometry x="220" y="-200" width="10" height="10" as="geometry" />
        </mxCell>
        <mxCell id="bIVVkQLqc1oo572h903z-40" value="&lt;span style=&quot;font-size: 5px;&quot;&gt;COGNOME&lt;br&gt;&lt;br&gt;&lt;/span&gt;" style="text;html=1;align=center;verticalAlign=middle;whiteSpace=wrap;rounded=0;" parent="1" vertex="1">
          <mxGeometry x="180" y="-220" width="60" height="30" as="geometry" />
        </mxCell>
        <mxCell id="bIVVkQLqc1oo572h903z-53" value="&lt;span style=&quot;font-size: 5px;&quot;&gt;Cf&lt;br&gt;&lt;br&gt;&lt;/span&gt;" style="text;html=1;align=center;verticalAlign=middle;whiteSpace=wrap;rounded=0;" parent="1" vertex="1">
          <mxGeometry x="217.5" y="15.209999999999994" width="20" height="10" as="geometry" />
        </mxCell>
        <mxCell id="bIVVkQLqc1oo572h903z-54" value="" style="endArrow=none;html=1;rounded=0;entryX=0.521;entryY=0.999;entryDx=0;entryDy=0;entryPerimeter=0;exitX=0.351;exitY=0.037;exitDx=0;exitDy=0;exitPerimeter=0;" parent="1" source="bIVVkQLqc1oo572h903z-55" edge="1">
          <mxGeometry width="50" height="50" relative="1" as="geometry">
            <mxPoint x="273.8" as="sourcePoint" />
            <mxPoint x="258.75" y="-49.99999999999994" as="targetPoint" />
          </mxGeometry>
        </mxCell>
        <mxCell id="bIVVkQLqc1oo572h903z-55" value="" style="ellipse;whiteSpace=wrap;html=1;aspect=fixed;fillColor=none;" parent="1" vertex="1">
          <mxGeometry x="271.25" y="1.2490009027033011e-14" width="10" height="10" as="geometry" />
        </mxCell>
        <mxCell id="bIVVkQLqc1oo572h903z-56" value="&lt;span style=&quot;font-size: 5px;&quot;&gt;TITOLO DI STUDIO (1,N)&lt;br&gt;&lt;br&gt;&lt;/span&gt;" style="text;html=1;align=center;verticalAlign=middle;whiteSpace=wrap;rounded=0;" parent="1" vertex="1">
          <mxGeometry x="247.5" y="25.210000000000015" width="62.5" height="0.42" as="geometry" />
        </mxCell>
        <mxCell id="bIVVkQLqc1oo572h903z-58" value="" style="endArrow=none;html=1;rounded=0;entryX=0.999;entryY=0.155;entryDx=0;entryDy=0;entryPerimeter=0;exitX=0.5;exitY=0;exitDx=0;exitDy=0;" parent="1" source="bIVVkQLqc1oo572h903z-59" target="bIVVkQLqc1oo572h903z-29" edge="1">
          <mxGeometry width="50" height="50" relative="1" as="geometry">
            <mxPoint x="325" y="-40.420000000000016" as="sourcePoint" />
            <mxPoint x="302.03999999999996" y="-99.99999999999994" as="targetPoint" />
          </mxGeometry>
        </mxCell>
        <mxCell id="bIVVkQLqc1oo572h903z-59" value="&lt;div style=&quot;text-align: justify;&quot;&gt;&lt;span style=&quot;font-size: 3px; background-color: initial;&quot;&gt;INDIRIZZO&lt;/span&gt;&lt;/div&gt;" style="ellipse;whiteSpace=wrap;html=1;aspect=fixed;fillColor=none;" parent="1" vertex="1">
          <mxGeometry x="320" y="-40.420000000000016" width="20" height="20" as="geometry" />
        </mxCell>
        <mxCell id="bIVVkQLqc1oo572h903z-60" value="&lt;font style=&quot;font-size: 5px;&quot;&gt;CAP&lt;/font&gt;" style="text;html=1;align=center;verticalAlign=middle;whiteSpace=wrap;rounded=0;" parent="1" vertex="1">
          <mxGeometry x="335" y="-20.420000000000016" width="60" height="30" as="geometry" />
        </mxCell>
        <mxCell id="bIVVkQLqc1oo572h903z-61" value="" style="endArrow=none;html=1;rounded=0;exitX=1;exitY=0;exitDx=0;exitDy=0;" parent="1" source="bIVVkQLqc1oo572h903z-64" edge="1">
          <mxGeometry width="50" height="50" relative="1" as="geometry">
            <mxPoint x="310" y="-20.420000000000016" as="sourcePoint" />
            <mxPoint x="320" y="-30.420000000000016" as="targetPoint" />
            <Array as="points" />
          </mxGeometry>
        </mxCell>
        <mxCell id="bIVVkQLqc1oo572h903z-62" value="" style="endArrow=none;html=1;rounded=0;" parent="1" edge="1">
          <mxGeometry width="50" height="50" relative="1" as="geometry">
            <mxPoint x="330" y="-10.420000000000016" as="sourcePoint" />
            <mxPoint x="330" y="-20.420000000000016" as="targetPoint" />
            <Array as="points" />
          </mxGeometry>
        </mxCell>
        <mxCell id="bIVVkQLqc1oo572h903z-63" value="" style="endArrow=none;html=1;rounded=0;exitX=0;exitY=0;exitDx=0;exitDy=0;" parent="1" source="bIVVkQLqc1oo572h903z-66" edge="1">
          <mxGeometry width="50" height="50" relative="1" as="geometry">
            <mxPoint x="350" y="-20.420000000000016" as="sourcePoint" />
            <mxPoint x="340" y="-30.420000000000016" as="targetPoint" />
            <Array as="points" />
          </mxGeometry>
        </mxCell>
        <mxCell id="bIVVkQLqc1oo572h903z-64" value="" style="ellipse;whiteSpace=wrap;html=1;aspect=fixed;fillColor=none;" parent="1" vertex="1">
          <mxGeometry x="300" y="-20.420000000000016" width="10" height="10" as="geometry" />
        </mxCell>
        <mxCell id="bIVVkQLqc1oo572h903z-65" value="" style="ellipse;whiteSpace=wrap;html=1;aspect=fixed;fillColor=none;" parent="1" vertex="1">
          <mxGeometry x="325" y="-10.420000000000016" width="10" height="10" as="geometry" />
        </mxCell>
        <mxCell id="bIVVkQLqc1oo572h903z-66" value="" style="ellipse;whiteSpace=wrap;html=1;aspect=fixed;fillColor=none;" parent="1" vertex="1">
          <mxGeometry x="350" y="-20.420000000000016" width="10" height="10" as="geometry" />
        </mxCell>
        <mxCell id="bIVVkQLqc1oo572h903z-67" value="&lt;span style=&quot;font-size: 5px;&quot;&gt;VIA&lt;br&gt;&lt;/span&gt;" style="text;html=1;align=center;verticalAlign=middle;whiteSpace=wrap;rounded=0;" parent="1" vertex="1">
          <mxGeometry x="300" y="-10" width="60" height="30" as="geometry" />
        </mxCell>
        <mxCell id="bIVVkQLqc1oo572h903z-68" value="&lt;span style=&quot;font-size: 5px;&quot;&gt;CITTA&#39;&lt;br&gt;&lt;/span&gt;" style="text;html=1;align=center;verticalAlign=middle;whiteSpace=wrap;rounded=0;" parent="1" vertex="1">
          <mxGeometry x="281.25" y="-10.420000000000016" width="40" height="10" as="geometry" />
        </mxCell>
        <mxCell id="bIVVkQLqc1oo572h903z-82" value="&lt;font style=&quot;font-size: 18px;&quot;&gt;CORSO&lt;/font&gt;" style="rounded=0;whiteSpace=wrap;html=1;" parent="1" vertex="1">
          <mxGeometry x="180" y="340" width="120" height="60" as="geometry" />
        </mxCell>
        <mxCell id="bIVVkQLqc1oo572h903z-83" value="" style="endArrow=none;html=1;rounded=0;entryX=0;entryY=1;entryDx=0;entryDy=0;exitX=0.882;exitY=-0.002;exitDx=0;exitDy=0;exitPerimeter=0;" parent="1" source="bIVVkQLqc1oo572h903z-82" target="bIVVkQLqc1oo572h903z-84" edge="1">
          <mxGeometry width="50" height="50" relative="1" as="geometry">
            <mxPoint x="284.27" y="341.46" as="sourcePoint" />
            <mxPoint x="330.7344660940869" y="299.9955339059133" as="targetPoint" />
          </mxGeometry>
        </mxCell>
        <mxCell id="bIVVkQLqc1oo572h903z-84" value="" style="ellipse;whiteSpace=wrap;html=1;aspect=fixed;fillColor=none;" parent="1" vertex="1">
          <mxGeometry x="331.25" y="290" width="10" height="10" as="geometry" />
        </mxCell>
        <mxCell id="bIVVkQLqc1oo572h903z-85" value="&lt;font style=&quot;font-size: 5px;&quot;&gt;NOME DEL CORSO&lt;/font&gt;" style="text;html=1;align=center;verticalAlign=middle;whiteSpace=wrap;rounded=0;" parent="1" vertex="1">
          <mxGeometry x="335" y="270" width="60" height="30" as="geometry" />
        </mxCell>
        <mxCell id="bIVVkQLqc1oo572h903z-99" value="" style="endArrow=none;html=1;rounded=0;exitX=0.161;exitY=1.003;exitDx=0;exitDy=0;exitPerimeter=0;entryX=0;entryY=0;entryDx=0;entryDy=0;" parent="1" source="bIVVkQLqc1oo572h903z-82" target="bIVVkQLqc1oo572h903z-100" edge="1">
          <mxGeometry width="50" height="50" relative="1" as="geometry">
            <mxPoint x="218.75" y="420" as="sourcePoint" />
            <mxPoint x="248.75" y="450" as="targetPoint" />
          </mxGeometry>
        </mxCell>
        <mxCell id="bIVVkQLqc1oo572h903z-100" value="" style="ellipse;whiteSpace=wrap;html=1;aspect=fixed;fillColor=none;" parent="1" vertex="1">
          <mxGeometry x="248.75" y="450" width="10" height="10" as="geometry" />
        </mxCell>
        <mxCell id="bIVVkQLqc1oo572h903z-101" value="&lt;span style=&quot;font-size: 5px;&quot;&gt;NUMERO ORE TOTALI&lt;/span&gt;" style="text;html=1;align=center;verticalAlign=middle;whiteSpace=wrap;rounded=0;" parent="1" vertex="1">
          <mxGeometry x="246.25" y="450" width="85" height="20" as="geometry" />
        </mxCell>
        <mxCell id="bIVVkQLqc1oo572h903z-102" value="&lt;span style=&quot;font-size: 18px;&quot;&gt;ISCRIZIONE&lt;/span&gt;" style="rounded=0;whiteSpace=wrap;html=1;" parent="1" vertex="1">
          <mxGeometry x="-400" y="90" width="120" height="60" as="geometry" />
        </mxCell>
        <mxCell id="bIVVkQLqc1oo572h903z-135" value="" style="endArrow=none;html=1;rounded=0;entryX=0.5;entryY=0;entryDx=0;entryDy=0;" parent="1" target="bIVVkQLqc1oo572h903z-136" edge="1">
          <mxGeometry relative="1" as="geometry">
            <mxPoint x="-340" y="-192.5" as="sourcePoint" />
            <mxPoint x="-340" y="-77.5" as="targetPoint" />
          </mxGeometry>
        </mxCell>
        <mxCell id="bIVVkQLqc1oo572h903z-136" value="F" style="shape=rhombus;perimeter=rhombusPerimeter;whiteSpace=wrap;html=1;align=center;" parent="1" vertex="1">
          <mxGeometry x="-380" y="-70.15" width="80" height="60" as="geometry" />
        </mxCell>
        <mxCell id="bIVVkQLqc1oo572h903z-139" value="" style="endArrow=none;html=1;rounded=0;exitX=0.984;exitY=0.529;exitDx=0;exitDy=0;exitPerimeter=0;" parent="1" edge="1">
          <mxGeometry relative="1" as="geometry">
            <mxPoint x="-339.9999999999999" y="-10.150000000000022" as="sourcePoint" />
            <mxPoint x="-339.23" y="89.7" as="targetPoint" />
          </mxGeometry>
        </mxCell>
        <mxCell id="bIVVkQLqc1oo572h903z-144" value="S" style="shape=rhombus;perimeter=rhombusPerimeter;whiteSpace=wrap;html=1;align=center;" parent="1" vertex="1">
          <mxGeometry x="-380" y="250" width="80" height="60" as="geometry" />
        </mxCell>
        <mxCell id="bIVVkQLqc1oo572h903z-171" value="" style="endArrow=none;html=1;rounded=0;entryX=0.5;entryY=0;entryDx=0;entryDy=0;" parent="1" target="bIVVkQLqc1oo572h903z-144" edge="1">
          <mxGeometry relative="1" as="geometry">
            <mxPoint x="-340.32" y="150" as="sourcePoint" />
            <mxPoint x="-340.32" y="200.32" as="targetPoint" />
          </mxGeometry>
        </mxCell>
        <mxCell id="bIVVkQLqc1oo572h903z-174" value="" style="endArrow=none;html=1;rounded=0;exitX=0.5;exitY=1;exitDx=0;exitDy=0;entryX=0.5;entryY=0;entryDx=0;entryDy=0;" parent="1" source="bIVVkQLqc1oo572h903z-144" target="dp0boh7LDVjITcD9e79i-11" edge="1">
          <mxGeometry relative="1" as="geometry">
            <mxPoint x="-100.29000000000002" y="275" as="sourcePoint" />
            <mxPoint x="-340" y="360" as="targetPoint" />
          </mxGeometry>
        </mxCell>
        <mxCell id="bIVVkQLqc1oo572h903z-190" value="" style="endArrow=none;html=1;rounded=0;entryX=0;entryY=1;entryDx=0;entryDy=0;" parent="1" target="bIVVkQLqc1oo572h903z-29" edge="1">
          <mxGeometry relative="1" as="geometry">
            <mxPoint x="179.98" y="160" as="sourcePoint" />
            <mxPoint x="179.41" y="50" as="targetPoint" />
          </mxGeometry>
        </mxCell>
        <mxCell id="bIVVkQLqc1oo572h903z-191" value="TIENE" style="shape=rhombus;perimeter=rhombusPerimeter;whiteSpace=wrap;html=1;align=center;" parent="1" vertex="1">
          <mxGeometry x="120" y="160" width="120" height="60" as="geometry" />
        </mxCell>
        <mxCell id="bIVVkQLqc1oo572h903z-192" value="" style="endArrow=none;html=1;rounded=0;exitX=0.5;exitY=1;exitDx=0;exitDy=0;entryX=0;entryY=0;entryDx=0;entryDy=0;" parent="1" source="bIVVkQLqc1oo572h903z-191" target="bIVVkQLqc1oo572h903z-82" edge="1">
          <mxGeometry relative="1" as="geometry">
            <mxPoint x="20" y="300" as="sourcePoint" />
            <mxPoint x="180" y="300" as="targetPoint" />
          </mxGeometry>
        </mxCell>
        <mxCell id="bIVVkQLqc1oo572h903z-264" value="(0,N)" style="text;html=1;align=center;verticalAlign=middle;whiteSpace=wrap;rounded=0;" parent="1" vertex="1">
          <mxGeometry x="-355" y="-190" width="60" height="30" as="geometry" />
        </mxCell>
        <mxCell id="bIVVkQLqc1oo572h903z-267" value="(1,N)" style="text;html=1;align=center;verticalAlign=middle;whiteSpace=wrap;rounded=0;" parent="1" vertex="1">
          <mxGeometry x="-352.5" y="320" width="55" height="20" as="geometry" />
        </mxCell>
        <mxCell id="bIVVkQLqc1oo572h903z-270" value="(1,N)" style="text;html=1;align=center;verticalAlign=middle;whiteSpace=wrap;rounded=0;" parent="1" vertex="1">
          <mxGeometry x="165" y="-45.42" width="60" height="30" as="geometry" />
        </mxCell>
        <mxCell id="bIVVkQLqc1oo572h903z-271" value="(1,1)" style="text;html=1;align=center;verticalAlign=middle;whiteSpace=wrap;rounded=0;" parent="1" vertex="1">
          <mxGeometry x="165" y="300" width="60" height="30" as="geometry" />
        </mxCell>
        <mxCell id="dp0boh7LDVjITcD9e79i-3" value="" style="endArrow=none;html=1;rounded=0;" parent="1" edge="1">
          <mxGeometry width="50" height="50" relative="1" as="geometry">
            <mxPoint x="-450" y="120" as="sourcePoint" />
            <mxPoint x="-400" y="120" as="targetPoint" />
          </mxGeometry>
        </mxCell>
        <mxCell id="dp0boh7LDVjITcD9e79i-4" value="" style="ellipse;whiteSpace=wrap;html=1;aspect=fixed;fillColor=none;" parent="1" vertex="1">
          <mxGeometry x="-460" y="115" width="10" height="10" as="geometry" />
        </mxCell>
        <mxCell id="dp0boh7LDVjITcD9e79i-5" value="&lt;span style=&quot;font-size: 5px;&quot;&gt;DATA&lt;/span&gt;" style="text;html=1;align=center;verticalAlign=middle;whiteSpace=wrap;rounded=0;" parent="1" vertex="1">
          <mxGeometry x="-490" y="90" width="60" height="30" as="geometry" />
        </mxCell>
        <mxCell id="dp0boh7LDVjITcD9e79i-6" value="" style="endArrow=none;html=1;rounded=0;" parent="1" edge="1">
          <mxGeometry width="50" height="50" relative="1" as="geometry">
            <mxPoint x="-420" y="190" as="sourcePoint" />
            <mxPoint x="-420" y="60" as="targetPoint" />
          </mxGeometry>
        </mxCell>
        <mxCell id="dp0boh7LDVjITcD9e79i-7" value="" style="endArrow=none;html=1;rounded=0;" parent="1" edge="1">
          <mxGeometry relative="1" as="geometry">
            <mxPoint x="-420" y="60" as="sourcePoint" />
            <mxPoint x="-300" y="60" as="targetPoint" />
          </mxGeometry>
        </mxCell>
        <mxCell id="dp0boh7LDVjITcD9e79i-8" value="" style="endArrow=none;html=1;rounded=0;" parent="1" edge="1">
          <mxGeometry relative="1" as="geometry">
            <mxPoint x="-420" y="190" as="sourcePoint" />
            <mxPoint x="-300" y="190" as="targetPoint" />
          </mxGeometry>
        </mxCell>
        <mxCell id="dp0boh7LDVjITcD9e79i-9" value="" style="ellipse;whiteSpace=wrap;html=1;aspect=fixed;fillColor=#3399FF;" parent="1" vertex="1">
          <mxGeometry x="-305" y="50" width="10" height="10" as="geometry" />
        </mxCell>
        <mxCell id="dp0boh7LDVjITcD9e79i-11" value="APPELLO" style="whiteSpace=wrap;html=1;align=center;fillColor=default;" parent="1" vertex="1">
          <mxGeometry x="-390" y="380" width="100" height="40" as="geometry" />
        </mxCell>
        <mxCell id="dp0boh7LDVjITcD9e79i-12" value="" style="endArrow=none;html=1;rounded=0;exitX=0.732;exitY=0.086;exitDx=0;exitDy=0;exitPerimeter=0;" parent="1" source="dp0boh7LDVjITcD9e79i-13" edge="1">
          <mxGeometry width="50" height="50" relative="1" as="geometry">
            <mxPoint x="-380" y="450" as="sourcePoint" />
            <mxPoint x="-360" y="420" as="targetPoint" />
          </mxGeometry>
        </mxCell>
        <mxCell id="dp0boh7LDVjITcD9e79i-13" value="" style="ellipse;whiteSpace=wrap;html=1;aspect=fixed;fillColor=none;" parent="1" vertex="1">
          <mxGeometry x="-380" y="450" width="10" height="10" as="geometry" />
        </mxCell>
        <mxCell id="dp0boh7LDVjITcD9e79i-14" value="" style="endArrow=none;html=1;rounded=0;exitX=0.705;exitY=0.076;exitDx=0;exitDy=0;exitPerimeter=0;entryX=0.581;entryY=1.009;entryDx=0;entryDy=0;entryPerimeter=0;" parent="1" source="dp0boh7LDVjITcD9e79i-15" target="dp0boh7LDVjITcD9e79i-11" edge="1">
          <mxGeometry width="50" height="50" relative="1" as="geometry">
            <mxPoint x="-340" y="450" as="sourcePoint" />
            <mxPoint x="-330" y="420" as="targetPoint" />
          </mxGeometry>
        </mxCell>
        <mxCell id="dp0boh7LDVjITcD9e79i-15" value="" style="ellipse;whiteSpace=wrap;html=1;aspect=fixed;fillColor=none;" parent="1" vertex="1">
          <mxGeometry x="-350" y="450" width="10" height="10" as="geometry" />
        </mxCell>
        <mxCell id="dp0boh7LDVjITcD9e79i-16" value="&lt;font style=&quot;font-size: 5px;&quot;&gt;DATA APPELLO&lt;/font&gt;" style="text;html=1;align=center;verticalAlign=middle;whiteSpace=wrap;rounded=0;" parent="1" vertex="1">
          <mxGeometry x="-425" y="450" width="60" height="30" as="geometry" />
        </mxCell>
        <mxCell id="dp0boh7LDVjITcD9e79i-17" value="&lt;font style=&quot;font-size: 5px;&quot;&gt;NUMERO MASSIMO DI ISCRIZIONI&lt;/font&gt;" style="text;html=1;align=center;verticalAlign=middle;whiteSpace=wrap;rounded=0;" parent="1" vertex="1">
          <mxGeometry x="-370" y="450" width="90" height="30" as="geometry" />
        </mxCell>
        <mxCell id="dp0boh7LDVjITcD9e79i-18" value="" style="endArrow=none;html=1;rounded=0;exitX=0.025;exitY=0.365;exitDx=0;exitDy=0;exitPerimeter=0;" parent="1" source="dp0boh7LDVjITcD9e79i-20" edge="1">
          <mxGeometry width="50" height="50" relative="1" as="geometry">
            <mxPoint x="-310" y="440" as="sourcePoint" />
            <mxPoint x="-305" y="420" as="targetPoint" />
          </mxGeometry>
        </mxCell>
        <mxCell id="dp0boh7LDVjITcD9e79i-20" value="" style="ellipse;whiteSpace=wrap;html=1;align=center;dashed=1;direction=south;" parent="1" vertex="1">
          <mxGeometry x="-315" y="440" width="10" height="10" as="geometry" />
        </mxCell>
        <mxCell id="dp0boh7LDVjITcD9e79i-21" value="&lt;span style=&quot;font-size: 5px;&quot;&gt;NUMERO STUDENTI ISCRITTI&lt;/span&gt;" style="text;html=1;align=center;verticalAlign=middle;whiteSpace=wrap;rounded=0;" parent="1" vertex="1">
          <mxGeometry x="-325" y="440" width="90" height="30" as="geometry" />
        </mxCell>
        <mxCell id="dp0boh7LDVjITcD9e79i-22" value="" style="endArrow=none;html=1;rounded=0;exitX=0.734;exitY=0.033;exitDx=0;exitDy=0;exitPerimeter=0;" parent="1" source="dp0boh7LDVjITcD9e79i-23" edge="1">
          <mxGeometry width="50" height="50" relative="1" as="geometry">
            <mxPoint x="-410" y="430" as="sourcePoint" />
            <mxPoint x="-390" y="400" as="targetPoint" />
          </mxGeometry>
        </mxCell>
        <mxCell id="dp0boh7LDVjITcD9e79i-23" value="" style="ellipse;whiteSpace=wrap;html=1;aspect=fixed;fillColor=#3399FF;" parent="1" vertex="1">
          <mxGeometry x="-415" y="430" width="10" height="10" as="geometry" />
        </mxCell>
        <mxCell id="dp0boh7LDVjITcD9e79i-24" value="&lt;span style=&quot;font-size: 5px;&quot;&gt;CODICE APPELLO&lt;/span&gt;" style="text;html=1;align=center;verticalAlign=middle;whiteSpace=wrap;rounded=0;" parent="1" vertex="1">
          <mxGeometry x="-450" y="435" width="60" height="20" as="geometry" />
        </mxCell>
        <mxCell id="dp0boh7LDVjITcD9e79i-25" value="ESAME" style="whiteSpace=wrap;html=1;align=center;" parent="1" vertex="1">
          <mxGeometry x="-150" y="380" width="100" height="40" as="geometry" />
        </mxCell>
        <mxCell id="dp0boh7LDVjITcD9e79i-26" value="" style="endArrow=none;html=1;rounded=0;" parent="1" edge="1">
          <mxGeometry relative="1" as="geometry">
            <mxPoint x="-290" y="400" as="sourcePoint" />
            <mxPoint x="-240" y="400" as="targetPoint" />
          </mxGeometry>
        </mxCell>
        <mxCell id="dp0boh7LDVjITcD9e79i-27" value="&lt;font style=&quot;font-size: 5px;&quot;&gt;APPARTIENE&lt;/font&gt;" style="shape=rhombus;perimeter=rhombusPerimeter;whiteSpace=wrap;html=1;align=center;" parent="1" vertex="1">
          <mxGeometry x="-245" y="385" width="50" height="30" as="geometry" />
        </mxCell>
        <mxCell id="dp0boh7LDVjITcD9e79i-28" value="" style="endArrow=none;html=1;rounded=0;exitX=1;exitY=0.5;exitDx=0;exitDy=0;" parent="1" source="dp0boh7LDVjITcD9e79i-27" edge="1">
          <mxGeometry relative="1" as="geometry">
            <mxPoint x="-190" y="400" as="sourcePoint" />
            <mxPoint x="-150" y="400" as="targetPoint" />
          </mxGeometry>
        </mxCell>
        <mxCell id="dp0boh7LDVjITcD9e79i-29" value="" style="endArrow=none;html=1;rounded=0;entryX=0;entryY=0.5;entryDx=0;entryDy=0;" parent="1" target="dp0boh7LDVjITcD9e79i-30" edge="1">
          <mxGeometry relative="1" as="geometry">
            <mxPoint x="-50" y="400" as="sourcePoint" />
            <mxPoint y="400" as="targetPoint" />
          </mxGeometry>
        </mxCell>
        <mxCell id="dp0boh7LDVjITcD9e79i-30" value="&lt;span style=&quot;font-size: 5px;&quot;&gt;VERIFICA&lt;/span&gt;" style="shape=rhombus;perimeter=rhombusPerimeter;whiteSpace=wrap;html=1;align=center;" parent="1" vertex="1">
          <mxGeometry x="50" y="385" width="50" height="30" as="geometry" />
        </mxCell>
        <mxCell id="dp0boh7LDVjITcD9e79i-31" value="" style="endArrow=none;html=1;rounded=0;exitX=1;exitY=0.5;exitDx=0;exitDy=0;" parent="1" source="dp0boh7LDVjITcD9e79i-30" edge="1">
          <mxGeometry relative="1" as="geometry">
            <mxPoint x="50" y="400" as="sourcePoint" />
            <mxPoint x="180" y="400" as="targetPoint" />
          </mxGeometry>
        </mxCell>
        <mxCell id="dp0boh7LDVjITcD9e79i-32" value="" style="endArrow=none;html=1;rounded=0;entryX=0;entryY=1;entryDx=0;entryDy=0;" parent="1" target="dp0boh7LDVjITcD9e79i-33" edge="1">
          <mxGeometry width="50" height="50" relative="1" as="geometry">
            <mxPoint x="-130" y="380" as="sourcePoint" />
            <mxPoint x="-100" y="350" as="targetPoint" />
          </mxGeometry>
        </mxCell>
        <mxCell id="dp0boh7LDVjITcD9e79i-33" value="" style="ellipse;whiteSpace=wrap;html=1;aspect=fixed;fillColor=none;" parent="1" vertex="1">
          <mxGeometry x="-100" y="340" width="10" height="10" as="geometry" />
        </mxCell>
        <mxCell id="dp0boh7LDVjITcD9e79i-34" value="&lt;font style=&quot;font-size: 5px;&quot;&gt;VOTO CONSEGUITO&lt;/font&gt;" style="text;html=1;align=center;verticalAlign=middle;whiteSpace=wrap;rounded=0;" parent="1" vertex="1">
          <mxGeometry x="-100" y="315" width="60" height="30" as="geometry" />
        </mxCell>
        <mxCell id="dp0boh7LDVjITcD9e79i-38" value="" style="endArrow=none;html=1;rounded=0;exitX=0;exitY=0;exitDx=0;exitDy=0;" parent="1" source="dp0boh7LDVjITcD9e79i-40" edge="1">
          <mxGeometry width="50" height="50" relative="1" as="geometry">
            <mxPoint x="-100" y="460" as="sourcePoint" />
            <mxPoint x="-130" y="420" as="targetPoint" />
          </mxGeometry>
        </mxCell>
        <mxCell id="dp0boh7LDVjITcD9e79i-39" value="&lt;span style=&quot;font-size: 5px;&quot;&gt;NUMERO&amp;nbsp; CFU&lt;/span&gt;" style="text;html=1;align=center;verticalAlign=middle;whiteSpace=wrap;rounded=0;" parent="1" vertex="1">
          <mxGeometry x="-120" y="460" width="60" height="30" as="geometry" />
        </mxCell>
        <mxCell id="dp0boh7LDVjITcD9e79i-40" value="" style="ellipse;whiteSpace=wrap;html=1;aspect=fixed;fillColor=none;" parent="1" vertex="1">
          <mxGeometry x="-100" y="460" width="10" height="10" as="geometry" />
        </mxCell>
        <mxCell id="dp0boh7LDVjITcD9e79i-41" value="" style="endArrow=none;html=1;rounded=0;exitX=0;exitY=0;exitDx=0;exitDy=0;" parent="1" source="dp0boh7LDVjITcD9e79i-43" edge="1">
          <mxGeometry width="50" height="50" relative="1" as="geometry">
            <mxPoint x="-50" y="460" as="sourcePoint" />
            <mxPoint x="-80" y="420" as="targetPoint" />
          </mxGeometry>
        </mxCell>
        <mxCell id="dp0boh7LDVjITcD9e79i-42" value="&lt;span style=&quot;font-size: 5px;&quot;&gt;ID_ESAME&lt;/span&gt;" style="text;html=1;align=center;verticalAlign=middle;whiteSpace=wrap;rounded=0;" parent="1" vertex="1">
          <mxGeometry x="-60" y="460" width="60" height="30" as="geometry" />
        </mxCell>
        <mxCell id="dp0boh7LDVjITcD9e79i-43" value="" style="ellipse;whiteSpace=wrap;html=1;aspect=fixed;fillColor=default;" parent="1" vertex="1">
          <mxGeometry x="-50" y="460" width="10" height="10" as="geometry" />
        </mxCell>
        <mxCell id="dp0boh7LDVjITcD9e79i-44" value="" style="endArrow=none;html=1;rounded=0;" parent="1" edge="1">
          <mxGeometry width="50" height="50" relative="1" as="geometry">
            <mxPoint x="-80" y="434.49" as="sourcePoint" />
            <mxPoint x="-30" y="434" as="targetPoint" />
          </mxGeometry>
        </mxCell>
        <mxCell id="dp0boh7LDVjITcD9e79i-45" value="" style="endArrow=none;html=1;rounded=0;" parent="1" edge="1">
          <mxGeometry width="50" height="50" relative="1" as="geometry">
            <mxPoint x="-30.07" y="435" as="sourcePoint" />
            <mxPoint x="-30.07" y="385" as="targetPoint" />
          </mxGeometry>
        </mxCell>
        <mxCell id="dp0boh7LDVjITcD9e79i-46" value="" style="ellipse;whiteSpace=wrap;html=1;aspect=fixed;fillColor=#3399FF;" parent="1" vertex="1">
          <mxGeometry x="-35" y="375" width="10" height="10" as="geometry" />
        </mxCell>
        <mxCell id="dp0boh7LDVjITcD9e79i-47" value="" style="endArrow=none;html=1;rounded=0;" parent="1" edge="1">
          <mxGeometry width="50" height="50" relative="1" as="geometry">
            <mxPoint x="80" y="190" as="sourcePoint" />
            <mxPoint x="120" y="190" as="targetPoint" />
          </mxGeometry>
        </mxCell>
        <mxCell id="dp0boh7LDVjITcD9e79i-48" value="" style="ellipse;whiteSpace=wrap;html=1;aspect=fixed;" parent="1" vertex="1">
          <mxGeometry x="70" y="185" width="10" height="10" as="geometry" />
        </mxCell>
        <mxCell id="dp0boh7LDVjITcD9e79i-49" value="&lt;font style=&quot;font-size: 5px;&quot;&gt;ORE&lt;/font&gt;" style="text;html=1;align=center;verticalAlign=middle;whiteSpace=wrap;rounded=0;" parent="1" vertex="1">
          <mxGeometry x="30" y="165" width="60" height="30" as="geometry" />
        </mxCell>
        <mxCell id="dp0boh7LDVjITcD9e79i-50" value="(1,1)" style="text;html=1;align=center;verticalAlign=middle;whiteSpace=wrap;rounded=0;" parent="1" vertex="1">
          <mxGeometry x="-305" y="375" width="60" height="30" as="geometry" />
        </mxCell>
        <mxCell id="dp0boh7LDVjITcD9e79i-57" value="(1,N)" style="text;html=1;align=center;verticalAlign=middle;whiteSpace=wrap;rounded=0;" parent="1" vertex="1">
          <mxGeometry x="-195" y="375" width="60" height="30" as="geometry" />
        </mxCell>
        <mxCell id="dp0boh7LDVjITcD9e79i-58" value="(1,1)" style="text;html=1;align=center;verticalAlign=middle;whiteSpace=wrap;rounded=0;" parent="1" vertex="1">
          <mxGeometry x="-40" y="375" width="60" height="30" as="geometry" />
        </mxCell>
        <mxCell id="dp0boh7LDVjITcD9e79i-59" value="(1,N)" style="text;html=1;align=center;verticalAlign=middle;whiteSpace=wrap;rounded=0;" parent="1" vertex="1">
          <mxGeometry x="130" y="375" width="60" height="30" as="geometry" />
        </mxCell>
        <mxCell id="W_MPJ_457TLYsXVpwbPU-1" value="" style="endArrow=none;html=1;rounded=0;entryX=0;entryY=1;entryDx=0;entryDy=0;exitX=1.002;exitY=0.586;exitDx=0;exitDy=0;exitPerimeter=0;" parent="1" source="bIVVkQLqc1oo572h903z-82" target="W_MPJ_457TLYsXVpwbPU-2" edge="1">
          <mxGeometry width="50" height="50" relative="1" as="geometry">
            <mxPoint x="300" y="370" as="sourcePoint" />
            <mxPoint x="350" y="330" as="targetPoint" />
          </mxGeometry>
        </mxCell>
        <mxCell id="W_MPJ_457TLYsXVpwbPU-2" value="" style="ellipse;whiteSpace=wrap;html=1;aspect=fixed;" parent="1" vertex="1">
          <mxGeometry x="350" y="320" width="10" height="10" as="geometry" />
        </mxCell>
        <mxCell id="W_MPJ_457TLYsXVpwbPU-3" value="&lt;span style=&quot;font-size: 5px;&quot;&gt;ANNO&lt;br&gt;&lt;br&gt;&lt;/span&gt;" style="text;html=1;align=center;verticalAlign=middle;whiteSpace=wrap;rounded=0;" parent="1" vertex="1">
          <mxGeometry x="341.25" y="310" width="60" height="30" as="geometry" />
        </mxCell>
        <mxCell id="W_MPJ_457TLYsXVpwbPU-4" value="" style="endArrow=none;html=1;rounded=0;entryX=0.699;entryY=0.945;entryDx=0;entryDy=0;entryPerimeter=0;" parent="1" target="W_MPJ_457TLYsXVpwbPU-6" edge="1">
          <mxGeometry width="50" height="50" relative="1" as="geometry">
            <mxPoint x="331.25" y="367.5" as="sourcePoint" />
            <mxPoint x="291.25" y="292.5" as="targetPoint" />
          </mxGeometry>
        </mxCell>
        <mxCell id="W_MPJ_457TLYsXVpwbPU-6" value="" style="ellipse;whiteSpace=wrap;html=1;aspect=fixed;fillColor=#007FFF;" parent="1" vertex="1">
          <mxGeometry x="283.75" y="280" width="10" height="10" as="geometry" />
        </mxCell>
        <mxCell id="W_MPJ_457TLYsXVpwbPU-9" value="" style="endArrow=none;html=1;rounded=0;entryX=0.521;entryY=0.999;entryDx=0;entryDy=0;entryPerimeter=0;" parent="1" edge="1">
          <mxGeometry width="50" height="50" relative="1" as="geometry">
            <mxPoint x="233.75" y="0.4199999999999875" as="sourcePoint" />
            <mxPoint x="218.7" y="-49.579999999999956" as="targetPoint" />
          </mxGeometry>
        </mxCell>
        <mxCell id="W_MPJ_457TLYsXVpwbPU-10" value="" style="ellipse;whiteSpace=wrap;html=1;aspect=fixed;fillColor=none;" parent="1" vertex="1">
          <mxGeometry x="230" width="10" height="10" as="geometry" />
        </mxCell>
        <mxCell id="W_MPJ_457TLYsXVpwbPU-12" value="" style="shape=flexArrow;endArrow=classic;html=1;rounded=0;" parent="1" edge="1">
          <mxGeometry width="50" height="50" relative="1" as="geometry">
            <mxPoint x="-274.82" y="-150" as="sourcePoint" />
            <mxPoint x="-275" y="-185" as="targetPoint" />
            <Array as="points">
              <mxPoint x="-274.82" y="-160" />
            </Array>
          </mxGeometry>
        </mxCell>
        <mxCell id="W_MPJ_457TLYsXVpwbPU-13" value="&lt;font style=&quot;font-size: 11px;&quot;&gt;STUDENTE FUORICORSO&lt;/font&gt;" style="rounded=0;whiteSpace=wrap;html=1;fillColor=none;" parent="1" vertex="1">
          <mxGeometry x="-330" y="-140" width="120" height="60" as="geometry" />
        </mxCell>
        <mxCell id="W_MPJ_457TLYsXVpwbPU-14" value="" style="endArrow=none;html=1;rounded=0;" parent="1" edge="1">
          <mxGeometry width="50" height="50" relative="1" as="geometry">
            <mxPoint x="-240" y="-50" as="sourcePoint" />
            <mxPoint x="-240" y="-80" as="targetPoint" />
          </mxGeometry>
        </mxCell>
        <mxCell id="W_MPJ_457TLYsXVpwbPU-15" value="" style="ellipse;whiteSpace=wrap;html=1;aspect=fixed;fillColor=none;" parent="1" vertex="1">
          <mxGeometry x="-245.42" y="-50" width="10.42" height="10.42" as="geometry" />
        </mxCell>
        <mxCell id="W_MPJ_457TLYsXVpwbPU-16" value="&lt;font style=&quot;font-size: 5px;&quot;&gt;ANNI FUORICORSO&lt;/font&gt;" style="text;html=1;align=center;verticalAlign=middle;whiteSpace=wrap;rounded=0;" parent="1" vertex="1">
          <mxGeometry x="-245" y="-50.42" width="60" height="30" as="geometry" />
        </mxCell>
        <mxCell id="Q6ahoSf86Qhkyut0DUnV-1" value="" style="endArrow=none;html=1;rounded=0;entryX=0.697;entryY=0.983;entryDx=0;entryDy=0;entryPerimeter=0;" parent="1" target="Q6ahoSf86Qhkyut0DUnV-2" edge="1">
          <mxGeometry width="50" height="50" relative="1" as="geometry">
            <mxPoint x="290" y="-110" as="sourcePoint" />
            <mxPoint x="260" y="-180" as="targetPoint" />
          </mxGeometry>
        </mxCell>
        <mxCell id="Q6ahoSf86Qhkyut0DUnV-2" value="" style="ellipse;whiteSpace=wrap;html=1;aspect=fixed;fillColor=none;" parent="1" vertex="1">
          <mxGeometry x="248.75" y="-190" width="10" height="10" as="geometry" />
        </mxCell>
        <mxCell id="Q6ahoSf86Qhkyut0DUnV-3" value="&lt;span style=&quot;font-size: 5px;&quot;&gt;STIPENDIO&lt;br&gt;&lt;/span&gt;" style="text;html=1;align=center;verticalAlign=middle;whiteSpace=wrap;rounded=0;" parent="1" vertex="1">
          <mxGeometry x="233.75" y="-220" width="60" height="30" as="geometry" />
        </mxCell>
      </root>
    </mxGraphModel>
  </diagram>
</mxfile>
